<?xml version="1.0" standalone="no"?>
<!DOCTYPE svg PUBLIC "-//W3C//DTD SVG 20010904//EN"
 "http://www.w3.org/TR/2001/REC-SVG-20010904/DTD/svg10.dtd">
<svg version="1.0" xmlns="http://www.w3.org/2000/svg"
 width="865.000000pt" height="865.000000pt" viewBox="0 0 865.000000 865.000000"
 preserveAspectRatio="xMidYMid meet">
<metadata>
Created by potrace 1.14, written by Peter Selinger 2001-2017
</metadata>
<g transform="translate(0.000000,865.000000) scale(0.100000,-0.100000)"
fill="#000000" stroke="none">
<path d="M4175 8565 c-83 -47 -157 -90 -165 -95 -8 -6 -26 -16 -40 -22 -14 -7
-27 -15 -30 -18 -6 -6 -33 -21 -110 -63 -30 -16 -59 -33 -65 -37 -10 -8 -87
-51 -140 -80 -16 -9 -49 -28 -72 -43 -24 -15 -45 -27 -47 -27 -4 0 -198 -111
-226 -130 -8 -6 -22 -13 -30 -17 -8 -4 -35 -19 -61 -33 -25 -15 -65 -38 -90
-52 -67 -38 -109 -62 -164 -95 -27 -16 -57 -32 -65 -36 -8 -4 -37 -21 -65 -37
-27 -17 -59 -35 -70 -40 -11 -6 -36 -20 -55 -32 -19 -11 -53 -31 -75 -42 -22
-12 -83 -48 -137 -79 -53 -31 -101 -57 -106 -57 -6 0 -12 -4 -14 -8 -2 -7 -59
-40 -163 -97 -11 -6 -39 -23 -62 -38 -24 -15 -45 -27 -47 -27 -9 0 -131 -75
-134 -82 -2 -5 -8 -8 -14 -8 -10 0 -432 -239 -479 -271 -14 -10 -29 -16 -33
-12 -3 3 -6 1 -6 -5 0 -7 -4 -12 -10 -12 -5 0 -39 -18 -75 -40 -36 -22 -65
-36 -65 -32 0 4 -4 2 -8 -4 -5 -8 -210 -129 -387 -228 -11 -6 -85 -49 -165
-94 l-146 -84 1 -2161 0 -2161 55 -31 c30 -18 95 -55 144 -83 49 -29 93 -52
97 -52 5 0 9 -4 9 -10 0 -5 4 -10 9 -10 5 0 107 -56 227 -125 119 -69 218
-125 220 -125 4 0 86 -48 134 -79 14 -8 27 -16 30 -16 3 0 16 -8 30 -17 26
-17 137 -80 230 -131 30 -16 60 -33 65 -37 11 -8 60 -37 173 -100 39 -22 319
-182 350 -201 15 -9 50 -28 77 -44 119 -67 139 -78 183 -105 26 -16 67 -39 92
-51 25 -12 52 -28 60 -34 8 -7 40 -26 70 -42 30 -17 71 -40 90 -52 19 -11 49
-28 67 -36 17 -8 37 -20 45 -27 7 -7 31 -22 53 -33 22 -11 63 -34 92 -52 29
-18 54 -33 57 -33 3 0 60 -32 128 -72 68 -39 144 -83 170 -97 128 -70 394
-227 400 -236 4 -5 8 -6 8 -1 0 5 6 4 13 -2 6 -5 35 -23 62 -39 28 -15 113
-63 189 -107 l138 -78 40 18 c23 10 46 23 52 29 11 10 83 51 123 70 13 5 23
13 23 18 0 4 4 7 9 7 5 0 48 22 96 50 48 27 91 50 96 50 5 0 9 4 9 9 0 5 15
14 33 22 17 7 34 15 37 18 5 6 38 25 100 58 19 10 37 20 40 23 3 3 19 12 35
20 17 8 32 18 35 21 3 3 41 25 85 49 44 24 89 48 100 54 11 6 22 13 25 16 5 5
22 15 99 58 25 13 58 33 73 43 14 11 29 19 32 19 4 0 76 40 161 90 84 49 171
99 192 111 100 56 129 74 146 87 9 8 17 12 17 8 0 -4 12 1 28 11 41 27 147 89
367 213 157 89 251 145 253 152 2 4 10 8 18 8 8 0 32 11 52 25 20 14 42 25 49
25 7 0 13 5 13 10 0 6 6 10 14 10 7 0 19 7 26 15 7 8 16 13 20 10 5 -3 10 -2
12 3 1 4 82 52 178 107 96 55 184 105 195 112 11 7 32 17 48 24 15 6 27 15 27
20 0 5 9 9 19 9 11 0 21 4 23 9 2 5 39 28 83 51 44 24 87 48 95 54 8 7 35 22
60 36 25 13 54 28 65 34 11 6 22 14 25 17 3 3 17 12 32 20 110 58 138 74 138
80 0 4 11 10 25 13 14 4 25 11 25 16 0 6 6 10 14 10 8 0 52 23 98 50 46 28 90
54 98 59 13 7 15 271 15 2170 l0 2162 -25 13 c-14 7 -88 49 -165 93 -77 44
-158 91 -180 103 -95 53 -130 75 -133 82 -2 4 -11 8 -20 8 -8 0 -23 6 -31 14
-9 7 -41 27 -71 43 -76 41 -104 57 -110 63 -3 3 -23 14 -45 25 -22 11 -44 24
-50 28 -25 20 -124 74 -128 71 -2 -3 -10 2 -17 11 -7 8 -19 15 -26 15 -8 0
-14 5 -14 10 0 6 -4 10 -9 10 -5 0 -65 32 -133 71 -67 40 -148 85 -178 102
-30 17 -99 57 -153 89 -55 32 -103 58 -108 58 -5 0 -9 4 -9 8 0 4 -12 13 -27
19 -16 7 -50 25 -78 42 -46 28 -100 59 -200 114 -22 12 -41 25 -43 30 -2 4 -7
7 -12 7 -7 0 -138 73 -180 100 -8 6 -31 18 -50 28 -19 9 -37 19 -40 23 -3 3
-21 13 -40 22 -19 10 -48 27 -65 37 -16 11 -42 25 -57 31 -16 6 -28 15 -28 20
0 5 -3 8 -7 7 -5 -1 -36 14 -71 35 -35 20 -67 37 -73 37 -5 0 -9 4 -9 9 0 5
-8 11 -17 14 -10 3 -40 20 -68 36 -27 17 -57 34 -65 38 -8 4 -69 38 -135 76
-66 39 -136 79 -155 90 -19 11 -46 27 -60 34 -14 8 -47 28 -75 44 -27 17 -58
33 -67 36 -10 3 -18 9 -18 14 0 5 -6 9 -13 9 -7 0 -45 20 -85 45 -40 25 -74
45 -76 45 -3 0 -39 20 -80 45 -42 25 -81 45 -86 45 -6 0 -10 3 -10 8 0 4 -15
14 -32 21 -18 8 -56 30 -85 48 -29 18 -53 33 -55 33 -2 0 -71 -38 -153 -85z"/>
</g>
</svg>
