<svg width="32" height="35" viewBox="0 0 32 35" fill="none" xmlns="http://www.w3.org/2000/svg">
<path d="M18.2857 2.49731C18.2857 1.17062 19.2857 0 20.5714 0H29.6429C30 0 30.2857 0.078041 30.5714 0.234123C30.7857 0.312164 31.0714 0.546287 31.2857 0.78041C31.7143 1.24866 31.9286 1.87298 32 2.49731V12.4866C32 13.8913 30.9286 14.9839 29.7143 14.9839C28.4286 14.9839 27.4286 13.8913 27.4286 12.4866V8.58451L15.2857 21.7734C14.4286 22.788 12.9286 22.788 12.0714 21.7734C11.1429 20.837 11.1429 19.1981 12.0714 18.2616L24.1429 4.99463H20.5714C19.2857 4.99463 18.2857 3.90205 18.2857 2.49731ZM0 7.49194C0 4.7605 2 2.49731 4.57143 2.49731H11.4286C12.6429 2.49731 13.7143 3.66793 13.7143 4.99463C13.7143 6.39936 12.6429 7.49194 11.4286 7.49194H4.57143V29.9678H25.1429V22.4758C25.1429 21.1491 26.1429 19.9785 27.4286 19.9785C28.6429 19.9785 29.7143 21.1491 29.7143 22.4758V29.9678C29.7143 32.7772 27.6429 34.9624 25.1429 34.9624H4.57143C2 34.9624 0 32.7772 0 29.9678V7.49194Z" fill="#333333"/>
</svg>
