
<!-- SVG icon definitions, which must be included at the bottom of the html on each page where they are used. -->
<svg style="display:none;" version="1.1" xmlns="http://www.w3.org/2000/svg" xmlns:xlink="http://www.w3.org/1999/xlink">
  <defs>

    <!-- Social media icons -->
    <symbol id="symbol-twitter" viewBox="-1 -1 23 18">
      <path d="M22.104 2.14403C21.2873 2.50321 20.4153 2.74751 19.4969 2.85893C20.4326 2.2949 21.1524 1.40628 21.4929 0.346034C20.6153 0.858164 19.643 1.23119 18.6076 1.43881C17.7806 0.553654 16.6027 0 15.294 0C12.7867 0 10.754 2.0326 10.754 4.5372C10.754 4.89707 10.7956 5.24311 10.871 5.57461C7.09716 5.39675 3.7517 3.58422 1.51355 0.844323C1.11977 1.51078 0.898996 2.28452 0.898996 3.12815C0.898996 4.70606 1.7018 6.09297 2.91776 6.90753C2.17309 6.88331 1.47272 6.67846 0.861625 6.33934V6.3954C0.861625 8.59618 2.42362 10.4315 4.50259 10.8496C4.12127 10.952 3.71917 11.0073 3.3067 11.0073C3.01672 11.0073 2.73921 10.9797 2.46169 10.9278C3.04372 12.7299 4.71783 14.0441 6.71029 14.0808C5.16006 15.2982 3.19528 16.0235 1.07963 16.0235C0.719751 16.0235 0.360568 16.002 0 15.9619C2.02015 17.2484 4.39948 18 6.97328 18C15.3279 18 19.8907 11.0828 19.8907 5.09431C19.8907 4.90123 19.8907 4.70676 19.8769 4.51298C20.7634 3.87697 21.5379 3.07347 22.1469 2.16202L22.104 2.14403Z" />
    </symbol>
    <symbol id="symbol-facebook" viewBox="0 0 12 22">
      <path d="M7.44676 21.9865V12.7992H10.5103L11.0929 8.99861H7.44676V6.53252C7.44676 5.493 7.95625 4.47977 9.58908 4.47977H11.2466V1.24451C11.2466 1.24451 9.74193 0.987305 8.30385 0.987305C5.30115 0.987305 3.33798 2.8075 3.33798 6.10274V8.99943H0V12.8001H3.33798V21.9873L7.44676 21.9865Z" />
    </symbol>

  </defs>
</svg>
