<svg width="33" height="32" viewBox="0 0 33 32" fill="none" xmlns="http://www.w3.org/2000/svg">
<path d="M16.1236 7.75C11.5522 7.75 7.90932 11.4643 7.90932 15.9643C7.90932 20.5357 11.5522 24.1786 16.1236 24.1786C20.6236 24.1786 24.3379 20.5357 24.3379 15.9643C24.3379 11.4643 20.6236 7.75 16.1236 7.75ZM16.1236 21.3214C13.195 21.3214 10.7665 18.9643 10.7665 15.9643C10.7665 13.0357 13.1236 10.6786 16.1236 10.6786C19.0522 10.6786 21.4093 13.0357 21.4093 15.9643C21.4093 18.9643 19.0522 21.3214 16.1236 21.3214ZM26.5522 7.46429C26.5522 6.39286 25.695 5.53571 24.6236 5.53571C23.5522 5.53571 22.695 6.39286 22.695 7.46429C22.695 8.53572 23.5522 9.39286 24.6236 9.39286C25.695 9.39286 26.5522 8.53572 26.5522 7.46429ZM31.9807 9.39286C31.8379 6.82143 31.2665 4.53571 29.4093 2.67857C27.5522 0.821429 25.2665 0.25 22.695 0.107143C20.0522 -0.0357143 12.1236 -0.0357143 9.48075 0.107143C6.90932 0.25 4.69503 0.821429 2.76646 2.67857C0.909319 4.53571 0.337891 6.82143 0.195033 9.39286C0.0521763 12.0357 0.0521763 19.9643 0.195033 22.6071C0.337891 25.1786 0.909319 27.3929 2.76646 29.3214C4.69503 31.1786 6.90932 31.75 9.48075 31.8929C12.1236 32.0357 20.0522 32.0357 22.695 31.8929C25.2665 31.75 27.5522 31.1786 29.4093 29.3214C31.2665 27.3929 31.8379 25.1786 31.9807 22.6071C32.1236 19.9643 32.1236 12.0357 31.9807 9.39286ZM28.5522 25.3929C28.0522 26.8214 26.9093 27.8929 25.5522 28.4643C23.4093 29.3214 18.4093 29.1071 16.1236 29.1071C13.7665 29.1071 8.76646 29.3214 6.69503 28.4643C5.26646 27.8929 4.19503 26.8214 3.62361 25.3929C2.76646 23.3214 2.98075 18.3214 2.98075 15.9643C2.98075 13.6786 2.76646 8.67857 3.62361 6.53571C4.19503 5.17857 5.26646 4.10714 6.69503 3.53571C8.76646 2.67857 13.7665 2.89286 16.1236 2.89286C18.4093 2.89286 23.4093 2.67857 25.5522 3.53571C26.9093 4.03571 27.9807 5.17857 28.5522 6.53571C29.4093 8.67857 29.195 13.6786 29.195 15.9643C29.195 18.3214 29.4093 23.3214 28.5522 25.3929Z" fill="#333333"/>
</svg>
