<svg width="45" height="46" viewBox="0 0 45 46" fill="none" xmlns="http://www.w3.org/2000/svg">
<circle cx="22.5" cy="22.9746" r="21.5" stroke="#323334" stroke-width="2"/>
<path d="M28.3608 32.9583H32.5V25.638C32.5 22.0456 31.7244 19.2855 27.531 19.2855C25.5134 19.2855 24.1622 20.3921 23.6066 21.4403H23.5534V19.6226H19.5775V32.9592H23.7167V26.3595C23.7167 24.6196 24.046 22.9365 26.2043 22.9365C28.3293 22.9365 28.3608 24.9262 28.3608 26.473V32.9583Z" fill="#323334"/>
<path d="M12.5 15.3926C12.5 16.7185 13.5708 17.7972 14.9028 17.7972C16.2296 17.7972 17.3065 16.7193 17.3065 15.3926C17.3065 14.0667 16.2305 12.9897 14.9028 12.9897C13.5717 12.9897 12.5 14.0676 12.5 15.3926Z" fill="#323334"/>
<path d="M12.8275 19.6218V32.9583H16.9781V19.6218H12.8275Z" fill="#323334"/>
</svg>
