<svg width="23" height="32" viewBox="0 0 23 32" fill="none" xmlns="http://www.w3.org/2000/svg">
<path d="M15.2908 11.2C15.2908 13.4091 13.5 15.2 11.2908 15.2C9.08168 15.2 7.29082 13.4091 7.29082 11.2C7.29082 8.99086 9.08168 7.2 11.2908 7.2C13.5 7.2 15.2908 8.99086 15.2908 11.2Z" fill="#333333"/>
<path fill-rule="evenodd" clip-rule="evenodd" d="M0.0908203 11.2C0.0908203 5.008 5.09882 0 11.2908 0C17.4828 0 22.4908 5.008 22.4908 11.2C22.4908 19.6 11.2908 32 11.2908 32C11.2908 32 0.0908203 19.6 0.0908203 11.2ZM11.2908 3.2C6.87482 3.2 3.29082 6.784 3.29082 11.2C3.29082 15.76 7.96282 22.736 11.2908 27.008C14.6828 22.704 19.2908 15.808 19.2908 11.2C19.2908 6.784 15.7068 3.2 11.2908 3.2Z" fill="#333333"/>
</svg>
