<svg width="25" height="21" viewBox="0 0 25 21" fill="none" xmlns="http://www.w3.org/2000/svg">
<path d="M22.5 0.974609H2.5C1.125 0.974609 0.0125 2.09961 0.0125 3.47461L0 18.4746C0 19.8496 1.125 20.9746 2.5 20.9746H22.5C23.875 20.9746 25 19.8496 25 18.4746V3.47461C25 2.09961 23.875 0.974609 22.5 0.974609ZM21.25 18.4746H3.75C3.0625 18.4746 2.5 17.9121 2.5 17.2246V6.64648L11.175 12.0715C11.9875 12.584 13.0125 12.584 13.825 12.0715L22.5 6.64648V17.2246C22.5 17.9121 21.9375 18.4746 21.25 18.4746ZM12.5 9.72461L2.5 3.47461H22.5L12.5 9.72461Z" fill="#323334"/>
</svg>
