<svg width="24" height="14" viewBox="0 0 24 14" fill="none" xmlns="http://www.w3.org/2000/svg">
<path d="M0.585786 10.5858C-0.195262 11.3668 -0.195262 12.6332 0.585786 13.4142C1.36683 14.1953 2.63317 14.1953 3.41421 13.4142L0.585786 10.5858ZM12 2L13.4142 0.585786C12.6332 -0.195262 11.3668 -0.195262 10.5858 0.585786L12 2ZM20.5858 13.4142C21.3668 14.1953 22.6332 14.1953 23.4142 13.4142C24.1953 12.6332 24.1953 11.3668 23.4142 10.5858L20.5858 13.4142ZM3.41421 13.4142L13.4142 3.41421L10.5858 0.585786L0.585786 10.5858L3.41421 13.4142ZM10.5858 3.41421L20.5858 13.4142L23.4142 10.5858L13.4142 0.585786L10.5858 3.41421Z" fill="white"/>
</svg>
