<svg width="45" height="46" viewBox="0 0 45 46" fill="none" xmlns="http://www.w3.org/2000/svg">
<circle cx="22.5" cy="22.9746" r="21.5" stroke="#323334" stroke-width="2"/>
<path d="M32.4613 16.7834C31.7238 17.1077 30.9363 17.3283 30.107 17.429C30.9519 16.9196 31.6019 16.1171 31.9094 15.1597C31.1169 15.6221 30.2388 15.959 29.3039 16.1465C28.557 15.3472 27.4933 14.8472 26.3114 14.8472C24.0471 14.8472 22.2116 16.6827 22.2116 18.9445C22.2116 19.2695 22.2491 19.582 22.3172 19.8814C18.9092 19.7208 15.888 18.0839 13.8668 15.6096C13.5112 16.2115 13.3118 16.9102 13.3118 17.6721C13.3118 19.097 14.0368 20.3495 15.1349 21.0851C14.4624 21.0632 13.83 20.8782 13.2781 20.572V20.6226C13.2781 22.61 14.6887 24.2675 16.5661 24.645C16.2218 24.7375 15.8586 24.7875 15.4862 24.7875C15.2243 24.7875 14.9737 24.7625 14.7231 24.7156C15.2487 26.3431 16.7605 27.5299 18.5598 27.563C17.1599 28.6624 15.3855 29.3173 13.475 29.3173C13.15 29.3173 12.8256 29.298 12.5 29.2617C14.3243 30.4236 16.473 31.1023 18.7973 31.1023C26.3421 31.1023 30.4626 24.8556 30.4626 19.4476C30.4626 19.2733 30.4626 19.0977 30.4501 18.9227C31.2507 18.3483 31.95 17.6227 32.5 16.7996L32.4613 16.7834Z" fill="#323334"/>
</svg>
