<svg width="46" height="32" viewBox="0 0 46 32" fill="none" xmlns="http://www.w3.org/2000/svg">
<path d="M44.5833 5.08333C44.0833 3.08333 42.5 1.5 40.5833 1C37 0 22.8333 0 22.8333 0C22.8333 0 8.58333 0 5 1C3.08333 1.5 1.5 3.08333 1 5.08333C0 8.58333 0 16.0833 0 16.0833C0 16.0833 0 23.5 1 27.0833C1.5 29.0833 3.08333 30.5833 5 31.0833C8.58333 32 22.8333 32 22.8333 32C22.8333 32 37 32 40.5833 31.0833C42.5 30.5833 44.0833 29.0833 44.5833 27.0833C45.5833 23.5 45.5833 16.0833 45.5833 16.0833C45.5833 16.0833 45.5833 8.58333 44.5833 5.08333ZM18.1667 22.8333V9.33333L30 16.0833L18.1667 22.8333Z" fill="#333333"/>
</svg>
