<svg xmlns="http://www.w3.org/2000/svg" width="388" height="101" fill="none" viewBox="0 0 388 101">
  <g clip-path="url(#a)">
    <path fill="url(#b)" d="m64.32 87.834-21.283 12.254-21.424-12.366 21.651-37.451L64.32 87.834Z"/>
    <path fill="url(#c)" d="M86.071 50.415v24.818L64.27 87.836 43.172 50.271l42.9.144Z"/>
    <path fill="url(#d)" d="m64.449 13.073-21.236 37.2-21.61-37.188L43.037.712 64.45 13.073Z"/>
    <path fill="url(#e)" d="M86.072 25.556v24.86l-42.897-.143 21.275-37.2 21.622 12.483Z"/>
    <path fill="url(#f)" d="M43.459 50.237 21.613 87.722 0 75.245v-24.83l43.459-.178Z"/>
    <path fill="url(#g)" d="M43.213 50.273 0 50.416V25.557l21.604-12.472 21.609 37.188Z"/>
    <path fill="#6A4FA0" d="M69.128 15.775v19.562l16.944 9.781V25.556l-16.944-9.781Z"/>
    <path fill="#34403B" d="m43.036 20.275-9.148 5.28v9.001l9.148 5.281 9.148-5.28v-9.001l-9.148-5.281Z"/>
    <path fill="#90C64D" d="M16.944 15.775 0 25.556v19.562l16.944-9.78V15.774Z"/>
    <path fill="#4FA9E0" d="m26.092 10.494 16.944 9.78 16.943-9.78L43.036.712l-16.944 9.782Z"/>
    <path fill="#E88F3F" d="m59.98 90.306-16.944-9.782-16.944 9.782 16.944 9.781 16.944-9.781Z"/>
    <path fill="#037D4D" d="m26.092 30.056 7.795 4.5v-9l9.149-5.281-16.944-9.781-9.148 5.28v19.563l9.148-5.28Z"/>
    <path fill="#EBCE36" d="M16.944 85.025V65.462L0 55.68v19.563l16.944 9.78Z"/>
    <path fill="#1C5F43" d="M33.888 45.118V34.556l-7.796-4.5-9.148 5.281V45.9l7.795 4.5 9.149-5.28Z"/>
    <path fill="#2B5140" d="m33.887 45.119-9.148 5.28 9.148 5.282V45.119Z"/>
    <path fill="#383A3A" d="M33.887 34.557v10.562l9.149-5.281-9.149-5.281Z"/>
    <path fill="#D65196" d="m69.128 85.025 16.944-9.782V55.681l-16.944 9.78v19.564Z"/>
    <path fill="#7A2F89" d="M69.127 35.337V45.9l-7.795 4.5 7.796 4.5v10.562l16.944-9.781V45.118l-16.945-9.78Z"/>
    <path fill="#30358A" d="M52.184 34.556v10.562l9.148 5.282 7.796-4.5V35.336l-9.149-5.28-7.795 4.5Z"/>
    <path fill="#3A383A" d="m52.184 55.68 9.148-5.28-9.148-5.281V55.68Z"/>
    <path fill="#383739" d="M52.184 45.119V34.557l-9.148 5.28 9.148 5.282Z"/>
    <path fill="#42423D" d="M33.887 55.68v10.563l9.149-5.281-9.149-5.281Z"/>
    <path fill="#63363A" d="m43.036 60.962.151.087 8.997 5.194V55.681l-9.148 5.281Z"/>
    <path fill="#383739" d="M33.887 45.118v10.563l9.149 5.28 9.148-5.28V45.118l-9.148-5.28-9.149 5.28Z"/>
    <path fill="#D7812B" d="M33.887 75.243v-9.001l-7.795 4.501-9.148-5.281v19.562l9.148 5.282 16.944-9.782-9.149-5.28Z"/>
    <path fill="#BB3D2F" d="m43.036 60.961-9.148 5.282v9l9.148 5.281 9.148-5.28v-9.001l-9.148-5.282Z"/>
    <path fill="#2B4696" d="M52.184 25.558v8.998l7.796-4.5 9.148 5.281V15.775l-9.149-5.281-16.943 9.78 9.148 5.282v.002Z"/>
    <path fill="#34403B" d="m43.036 20.275-9.148 5.28v9.001l9.148 5.281 9.148-5.28v-9.001l-9.148-5.281Z"/>
    <path fill="#D03C2B" d="m59.977 70.742-7.793-4.499v9l-9.148 5.282 16.943 9.78 9.148-5.28V65.462l-9.147 5.281h-.002Z"/>
    <path fill="#753438" d="m61.332 50.4-9.148 5.28v10.564l7.794 4.5h.001l9.148-5.28V54.9l-7.795-4.5Z"/>
    <path fill="#4AA847" d="m24.74 50.4-7.796-4.5V35.336L0 45.118v10.563l16.944 9.78V54.9l.001-.001 7.794-4.5Z"/>
    <path fill="#5B7B42" d="m33.888 55.68-9.149-5.28-7.794 4.5h-.001v10.562l9.148 5.281 7.796-4.5V55.681Z"/>
    <path fill="#333" d="m130.237 47.306 12.169-15.952h12.477l-15.404 18.312L156.27 70.03h-13.042l-12.991-16.773h-.103V70.03H120.07V31.353h10.064v15.953h.103Z"/>
    <path fill="#333" d="M175.679 52.692c-1.061-1.162-2.516-1.744-4.364-1.744-1.849 0-3.321.582-4.416 1.744-1.062 1.129-1.592 2.531-1.592 4.206 0 1.71.53 3.13 1.592 4.258 1.095 1.094 2.567 1.641 4.416 1.641 1.848 0 3.303-.547 4.364-1.641 1.095-1.128 1.643-2.548 1.643-4.258 0-1.675-.548-3.077-1.643-4.206Zm10.68-8.976V70.03h-9.345v-2.924h-.102c-.788 1.266-1.9 2.223-3.338 2.873-1.438.615-2.978.923-4.621.923-3.834 0-7.018-1.368-9.551-4.104-2.499-2.77-3.748-6.087-3.748-9.95 0-3.865 1.232-7.165 3.697-9.9 2.498-2.736 5.665-4.104 9.499-4.104 3.491 0 6.213 1.145 8.164 3.437v-2.565h9.345Zm14.929-12.362V70.03h-9.345V31.353h9.345Zm24.275 21.338c-1.061-1.162-2.516-1.744-4.365-1.744-1.848 0-3.32.582-4.416 1.744-1.061 1.129-1.591 2.531-1.591 4.206 0 1.71.53 3.13 1.591 4.258 1.096 1.094 2.568 1.641 4.416 1.641 1.849 0 3.304-.547 4.365-1.641 1.095-1.128 1.643-2.548 1.643-4.258 0-1.675-.548-3.077-1.643-4.206Zm10.68-8.976V70.03h-9.345v-2.924h-.103c-.787 1.266-1.9 2.223-3.338 2.873-1.437.615-2.978.923-4.621.923-3.834 0-7.017-1.368-9.55-4.104-2.499-2.77-3.749-6.087-3.749-9.95 0-3.865 1.233-7.165 3.697-9.9 2.499-2.736 5.666-4.104 9.5-4.104 3.491 0 6.213 1.145 8.164 3.437v-2.565h9.345Zm15.54 0v3.282h.102c2.089-2.77 4.861-4.154 8.319-4.154 4.176 0 7.171 1.675 8.986 5.027a9.066 9.066 0 0 1 3.748-3.694 10.557 10.557 0 0 1 5.186-1.333c5.991 0 8.986 3.47 8.986 10.413V70.03h-9.346V57.463c0-.855-.017-1.47-.051-1.847 0-.376-.068-.974-.205-1.795-.103-.82-.274-1.436-.514-1.847-.239-.41-.633-.786-1.181-1.128-.513-.377-1.146-.564-1.9-.564-.821 0-1.523.17-2.105.512-.582.308-1.027.684-1.335 1.13-.308.41-.548.974-.719 1.691a15.794 15.794 0 0 0-.257 1.898 30.483 30.483 0 0 0-.051 1.95V70.03h-9.345V57.463c0-.684-.017-1.214-.051-1.59 0-.377-.034-.906-.103-1.59-.068-.685-.188-1.232-.359-1.642a7.075 7.075 0 0 0-.719-1.282 2.384 2.384 0 0 0-1.181-.975c-.514-.205-1.096-.308-1.746-.308-.65 0-1.232.103-1.746.308-.514.205-.924.53-1.232.975a9.338 9.338 0 0 0-.668 1.282c-.171.41-.291.957-.359 1.641-.069.685-.12 1.214-.154 1.59V70.03h-9.345V43.716h9.345Zm40.685-.001h9.345V57.77c0 1.847.325 3.266.976 4.258.684.957 1.917 1.436 3.697 1.436s2.995-.479 3.646-1.436c.684-.992 1.027-2.411 1.027-4.258V43.715h9.345v15.85c0 7.558-4.673 11.337-14.018 11.337s-14.018-3.78-14.018-11.336v-15.85Zm42.735.001V47.1h.103c1.917-2.838 4.724-4.257 8.421-4.257 3.389 0 5.888.974 7.497 2.923 1.608 1.915 2.413 4.583 2.413 8.002V70.03h-9.345V55.513c0-.17-.017-.461-.052-.871 0-.445-.034-.77-.103-.975a9.353 9.353 0 0 0-.205-.872c-.102-.376-.222-.65-.359-.821a8.064 8.064 0 0 0-.565-.615 1.608 1.608 0 0 0-.719-.565 5.329 5.329 0 0 0-.975-.359 4.685 4.685 0 0 0-1.233-.153c-3.252 0-4.878 2.034-4.878 6.104V70.03h-9.345V43.716h9.345Zm42.115 8.976c-1.058-1.162-2.515-1.744-4.364-1.744-1.846 0-3.321.582-4.415 1.744-1.061 1.129-1.592 2.531-1.592 4.206 0 1.71.531 3.13 1.592 4.258 1.094 1.094 2.569 1.641 4.415 1.641 1.849 0 3.306-.547 4.364-1.641 1.098-1.128 1.646-2.548 1.646-4.258 0-1.675-.548-3.077-1.646-4.206ZM388 43.716V70.03h-9.345v-2.924h-.104c-.787 1.266-1.899 2.223-3.338 2.873-1.436.615-2.975.923-4.621.923-3.834 0-7.016-1.368-9.549-4.104-2.497-2.77-3.748-6.087-3.748-9.95 0-3.865 1.233-7.165 3.695-9.9 2.501-2.736 5.668-4.104 9.502-4.104 3.492 0 6.21 1.145 8.163 3.437v-2.565H388Z"/>
  </g>
  <defs>
    <linearGradient id="b" x1="42.82" x2="42.82" y1="100.218" y2="50.276" gradientUnits="userSpaceOnUse">
      <stop offset=".15" stop-color="#E88F3F"/>
      <stop offset=".4" stop-color="#BB3D2F"/>
      <stop offset=".75" stop-color="#383739"/>
    </linearGradient>
    <linearGradient id="c" x1="85.555" x2="44.162" y1="75.852" y2="48.842" gradientUnits="userSpaceOnUse">
      <stop offset=".15" stop-color="#D65196"/>
      <stop offset=".4" stop-color="#753438"/>
      <stop offset=".75" stop-color="#383739"/>
    </linearGradient>
    <linearGradient id="d" x1="42.989" x2="42.989" y1=".614" y2="50.276" gradientUnits="userSpaceOnUse">
      <stop offset=".15" stop-color="#4FA9E0"/>
      <stop offset=".4" stop-color="#34403B"/>
      <stop offset=".75" stop-color="#383739"/>
    </linearGradient>
    <linearGradient id="e" x1="85.332" x2="45.117" y1="24.668" y2="52.962" gradientUnits="userSpaceOnUse">
      <stop offset=".15" stop-color="#6A4FA0"/>
      <stop offset=".5" stop-color="#30358A"/>
      <stop offset=".75" stop-color="#383739"/>
    </linearGradient>
    <linearGradient id="f" x1=".388" x2="42.102" y1="75.771" y2="48.551" gradientUnits="userSpaceOnUse">
      <stop offset=".15" stop-color="#EBCE36"/>
      <stop offset=".4" stop-color="#5B7B42"/>
      <stop offset=".75" stop-color="#383739"/>
    </linearGradient>
    <linearGradient id="g" x1=".396" x2="41.997" y1="25.014" y2="52.16" gradientUnits="userSpaceOnUse">
      <stop offset=".15" stop-color="#90C64D"/>
      <stop offset=".4" stop-color="#1C5F43"/>
      <stop offset=".75" stop-color="#383739"/>
    </linearGradient>
    <clipPath id="a">
      <path fill="#fff" d="M0 0h388v100.118H0z"/>
    </clipPath>
  </defs>
</svg>
