<?xml version="1.0" encoding="UTF-8"?> <svg xmlns="http://www.w3.org/2000/svg" width="439" height="597" viewBox="0 0 439 597" fill="none"><path d="M313.231 380.48L220.502 434L127.162 379.994L221.494 216.433L313.231 380.48Z" fill="url(#paint0_linear)"></path><path d="M407.997 217.065V325.449L313.009 380.491L221.09 216.434L407.997 217.065Z" fill="url(#paint1_linear)"></path><path d="M313.793 53.9829L221.271 216.444L127.124 54.0336L220.5 0L313.793 53.9829Z" fill="url(#paint2_linear)"></path><path d="M408 108.498V217.067L221.109 216.443L313.798 53.981L408 108.498Z" fill="url(#paint3_linear)"></path><path d="M222.341 216.286L127.162 379.994L33 325.505V217.067L222.341 216.286Z" fill="url(#paint4_linear)"></path><path d="M221.271 216.444L33 217.067V108.502L127.124 54.0336L221.271 216.444Z" fill="url(#paint5_linear)"></path><g clip-path="url(#clip0)"><path d="M16.2838 495.087L36.2005 468.968H56.63L31.4136 498.931L58.8952 532.268H37.5468L16.2838 504.825H16.1342V532.268H-0.341919V468.968H16.1342V495.087H16.2838Z" fill="white"></path><path d="M108.067 489.192V532.268H92.8304V527.506H92.6595C91.354 529.581 89.4558 531.218 87.2102 532.204C84.8209 533.228 82.2448 533.744 79.6453 533.721C76.7095 533.795 73.7925 533.232 71.0956 532.071C68.3986 530.909 65.9859 529.177 64.0239 526.993C60.0963 522.493 57.9324 516.723 57.9324 510.752C57.9324 504.78 60.0963 499.01 64.0239 494.51C65.9694 492.33 68.3675 490.6 71.0508 489.442C73.7341 488.284 76.638 487.725 79.5598 487.804C82.0455 487.67 84.5295 488.098 86.8271 489.055C89.1246 490.013 91.1766 491.476 92.8304 493.335V489.064L108.067 489.192ZM90.5866 503.886C89.6725 502.925 88.5612 502.174 87.3291 501.684C86.0971 501.194 84.7734 500.976 83.4491 501.045C82.1122 500.977 80.7763 501.196 79.5306 501.686C78.285 502.176 77.1584 502.926 76.2261 503.886C74.5515 505.806 73.6291 508.268 73.6291 510.816C73.6291 513.363 74.5515 515.825 76.2261 517.746C77.1844 518.661 78.3189 519.371 79.5607 519.834C80.8025 520.296 82.1254 520.502 83.4491 520.437C84.7606 520.509 86.0728 520.307 87.3018 519.844C88.5307 519.38 89.6495 518.666 90.5866 517.746C92.318 515.853 93.2781 513.381 93.2781 510.816C93.2781 508.251 92.318 505.779 90.5866 503.886" fill="white"></path><path d="M132.557 468.968H117.256V532.268H132.557V468.968Z" fill="white"></path><path d="M189.743 489.192V532.268H174.463V527.506H174.314C173.018 529.598 171.107 531.239 168.843 532.204C166.457 533.216 163.891 533.732 161.299 533.72C158.36 533.795 155.44 533.233 152.74 532.071C150.039 530.91 147.623 529.177 145.657 526.993C141.729 522.493 139.565 516.723 139.565 510.751C139.565 504.78 141.729 499.01 145.657 494.51C147.604 492.327 150.006 490.596 152.693 489.438C155.38 488.279 158.288 487.722 161.214 487.804C163.696 487.678 166.174 488.109 168.467 489.066C170.76 490.024 172.809 491.482 174.463 493.335V489.064L189.743 489.192ZM172.283 503.885C171.367 502.922 170.252 502.17 169.016 501.679C167.78 501.189 166.452 500.973 165.125 501.045C163.788 500.98 162.453 501.2 161.208 501.689C159.962 502.179 158.835 502.928 157.902 503.885C156.486 505.25 155.521 507.014 155.138 508.942C154.754 510.87 154.97 512.868 155.756 514.67C156.543 516.472 157.862 517.99 159.536 519.021C161.211 520.051 163.161 520.546 165.125 520.437C167.042 520.436 168.918 519.874 170.52 518.821C172.123 517.768 173.382 516.27 174.143 514.511C174.904 512.751 175.133 510.808 174.803 508.92C174.472 507.032 173.597 505.282 172.283 503.885" fill="white"></path><path d="M215.173 489.192V494.574H215.344C216.885 492.417 218.932 490.671 221.305 489.487C223.678 488.303 226.305 487.718 228.956 487.783C231.941 487.581 234.919 488.251 237.529 489.711C240.14 491.171 242.269 493.358 243.659 496.005C245.059 493.427 247.193 491.324 249.792 489.961C252.408 488.522 255.353 487.786 258.34 487.825C268.141 487.825 273.042 493.52 273.042 504.91V532.354H257.656V508.669C257.617 507.687 257.503 506.709 257.314 505.743C257.226 504.69 256.944 503.661 256.48 502.711C255.986 501.954 255.32 501.324 254.536 500.874C253.633 500.234 252.543 499.911 251.437 499.956C250.236 499.919 249.047 500.206 247.997 500.789C247.147 501.22 246.414 501.85 245.86 502.625C245.303 503.472 244.905 504.413 244.684 505.402C244.485 506.432 244.349 507.473 244.278 508.52V532.268H228.977V509.096C228.974 508.225 228.917 507.355 228.807 506.491C228.742 505.571 228.548 504.665 228.23 503.8C227.914 503.049 227.52 502.333 227.054 501.664C226.602 500.929 225.918 500.366 225.11 500.063C223.264 499.409 221.25 499.409 219.404 500.063C218.586 500.378 217.884 500.937 217.395 501.664C216.969 502.342 216.604 503.057 216.305 503.8C215.978 504.664 215.776 505.57 215.707 506.491C215.679 507.364 215.594 508.235 215.45 509.096V532.268H199.957V489.192H215.173Z" fill="white"></path><path d="M281.761 489.192H297.04V512.193C296.891 514.627 297.447 517.052 298.643 519.177C299.385 520.029 300.323 520.689 301.377 521.098C302.43 521.507 303.568 521.654 304.691 521.526C305.802 521.661 306.929 521.516 307.97 521.106C309.011 520.696 309.933 520.033 310.653 519.177C311.906 517.072 312.494 514.638 312.341 512.193V489.192H327.621V515.141C327.621 527.499 319.977 533.685 304.691 533.699C289.404 533.714 281.761 527.527 281.761 515.141V489.192Z" fill="white"></path><path d="M351.683 489.192V494.745H351.854C353.34 492.479 355.395 490.644 357.814 489.422C360.233 488.2 362.931 487.635 365.637 487.783C371.172 487.783 375.254 489.363 377.904 492.566C380.733 496.323 382.128 500.965 381.836 505.658V532.268H366.642V507.089C366.66 506.55 366.603 506.01 366.471 505.487C366.408 504.999 366.293 504.52 366.129 504.056C366.022 503.576 365.827 503.119 365.552 502.711C365.253 502.369 364.954 502.027 364.612 501.707C364.318 501.293 363.909 500.974 363.436 500.789C362.931 500.536 362.401 500.336 361.855 500.191C361.155 500.027 360.437 499.948 359.718 499.956C354.404 499.956 351.747 503.28 351.747 509.929V532.268H336.446V489.192H351.683Z" fill="white"></path><path d="M438.081 489.192V532.268H422.78V527.506H422.609C421.304 529.581 419.406 531.218 417.16 532.204C414.765 533.208 412.193 533.723 409.595 533.72C406.656 533.795 403.736 533.233 401.036 532.071C398.335 530.91 395.919 529.177 393.952 526.993C390.025 522.493 387.861 516.723 387.861 510.752C387.861 504.78 390.025 499.01 393.952 494.51C395.889 492.345 398.269 490.624 400.932 489.463C403.595 488.302 406.477 487.729 409.381 487.783C411.888 487.646 414.393 488.081 416.707 489.054C419.021 490.027 421.083 491.513 422.738 493.399V489.128L438.081 489.192ZM420.601 503.885C419.684 502.929 418.572 502.18 417.341 501.69C416.109 501.2 414.787 500.98 413.463 501.045C412.123 500.98 410.785 501.199 409.536 501.689C408.287 502.178 407.157 502.927 406.219 503.885C404.801 505.251 403.836 507.017 403.453 508.947C403.07 510.877 403.287 512.878 404.076 514.681C404.865 516.484 406.188 518.002 407.866 519.031C409.544 520.06 411.497 520.55 413.463 520.437C414.774 520.504 416.085 520.299 417.313 519.836C418.541 519.373 419.66 518.661 420.601 517.746C422.332 515.853 423.292 513.38 423.292 510.816C423.292 508.251 422.332 505.779 420.601 503.885" fill="white"></path><path d="M10.1079 576.882L-0.918945 561.185H8.4624L14.0399 569.429L19.5961 561.185H28.9988L17.9506 576.882V591.383H10.1079V576.882Z" fill="white"></path><path d="M23.8914 580.897C23.8955 579.425 24.2085 577.97 24.8103 576.626C25.4157 575.313 26.2892 574.142 27.3747 573.187C28.5235 572.182 29.8497 571.4 31.2854 570.881C34.4862 569.792 37.9574 569.792 41.1582 570.881C42.5994 571.392 43.9327 572.167 45.0903 573.166C46.179 574.131 47.0589 575.309 47.676 576.626C48.3001 578.03 48.6135 579.553 48.5949 581.089C48.6151 582.628 48.294 584.153 47.6546 585.553C47.0353 586.881 46.1561 588.072 45.0689 589.055C43.9111 590.06 42.5682 590.829 41.1155 591.319C39.5045 591.86 37.8142 592.127 36.1149 592.109C34.4244 592.15 32.7396 591.897 31.1358 591.362C29.7081 590.863 28.3935 590.086 27.2678 589.077C26.1923 588.076 25.3277 586.871 24.7248 585.532C24.1305 584.061 23.8467 582.483 23.8914 580.897V580.897ZM31.5632 580.897C31.543 581.55 31.6671 582.199 31.9265 582.798C32.17 583.352 32.51 583.858 32.9308 584.293C33.3604 584.72 33.8683 585.061 34.4267 585.297C35.0023 585.536 35.6196 585.66 36.2432 585.66C36.8667 585.66 37.484 585.536 38.0596 585.297C38.6181 585.061 39.1259 584.72 39.5555 584.293C39.9763 583.858 40.3164 583.352 40.5599 582.798C40.8026 582.212 40.9276 581.584 40.9276 580.951C40.9276 580.317 40.8026 579.689 40.5599 579.103C40.3164 578.549 39.9763 578.043 39.5555 577.608C39.1259 577.181 38.6181 576.84 38.0596 576.604C37.484 576.365 36.8667 576.241 36.2432 576.241C35.6196 576.241 35.0023 576.365 34.4267 576.604C33.8683 576.84 33.3604 577.181 32.9308 577.608C32.5222 578.045 32.1834 578.542 31.9265 579.082C31.6486 579.69 31.5238 580.358 31.5632 581.025V580.897Z" fill="white"></path><path d="M59.2158 570.838V582.414C59.2158 584.955 60.4338 586.236 62.8914 586.236C63.4041 586.303 63.9253 586.249 64.4134 586.079C64.9015 585.908 65.3429 585.626 65.7022 585.255C66.0615 584.883 66.3288 584.433 66.4827 583.939C66.6366 583.446 66.6728 582.923 66.5883 582.414V570.838H73.8754V583.823C73.9616 585.012 73.7555 586.203 73.275 587.294C72.7945 588.385 72.0542 589.341 71.1187 590.081C68.6856 591.659 65.807 592.408 62.9127 592.216C60.0252 592.408 57.1533 591.658 54.7281 590.081C53.7926 589.341 53.0524 588.385 52.5719 587.294C52.0914 586.203 51.8852 585.012 51.9714 583.823V570.838H59.2158Z" fill="white"></path><path d="M77.9784 570.838H85.2228V574.213C85.9308 573.053 86.9051 572.08 88.0649 571.372C89.268 570.709 90.6232 570.37 91.997 570.39H93.4074V577.331C92.4434 576.835 91.3715 576.585 90.2874 576.604C89.5818 576.553 88.8737 576.661 88.2153 576.919C87.5569 577.178 86.9651 577.581 86.4836 578.099C85.5651 579.375 85.1193 580.931 85.2228 582.499V591.298H77.9784V570.838Z" fill="white"></path><path d="M108.644 570.838H115.889V573.358C116.757 572.468 117.794 571.759 118.938 571.272C120.082 570.784 121.312 570.528 122.556 570.518C123.957 570.463 125.347 570.792 126.575 571.47C127.803 572.147 128.822 573.147 129.522 574.362C130.224 573.146 131.243 572.142 132.469 571.458C133.696 570.774 135.085 570.434 136.489 570.475C137.417 570.478 138.34 570.622 139.224 570.902C140.029 571.174 140.76 571.627 141.361 572.226C142.019 572.892 142.522 573.694 142.836 574.576C143.226 575.693 143.407 576.873 143.37 578.057V591.383H136.19V581.26C136.208 580.4 136.129 579.54 135.955 578.697C135.847 578.14 135.629 577.61 135.314 577.138C135.079 576.781 134.734 576.511 134.331 576.369C133.945 576.241 133.541 576.177 133.134 576.177C130.805 576.177 129.651 577.864 129.651 581.26V591.383H122.385V581.26C122.407 580.394 122.342 579.529 122.193 578.676C122.088 578.108 121.893 577.56 121.616 577.053C121.382 576.681 121.038 576.39 120.633 576.22C120.177 576.074 119.701 576.002 119.222 576.006C118.786 576.003 118.352 576.075 117.94 576.22C117.516 576.365 117.144 576.632 116.872 576.989C116.528 577.468 116.288 578.014 116.166 578.591C115.957 579.464 115.863 580.362 115.889 581.26V591.383H108.644V570.838Z" fill="white"></path><path d="M147.131 562.958C147.13 562.415 147.239 561.877 147.452 561.377C147.645 560.884 147.944 560.439 148.328 560.075C148.896 559.493 149.626 559.097 150.422 558.937C151.219 558.777 152.046 558.861 152.794 559.178C153.281 559.393 153.723 559.697 154.098 560.075C154.482 560.439 154.781 560.884 154.974 561.377C155.29 562.118 155.377 562.937 155.224 563.728C155.071 564.519 154.685 565.246 154.115 565.815C153.545 566.385 152.817 566.771 152.026 566.924C151.235 567.077 150.416 566.99 149.674 566.674C148.715 566.261 147.95 565.497 147.537 564.538C147.301 564.042 147.164 563.506 147.131 562.958ZM154.867 570.838V591.383H147.601V570.838H154.867Z" fill="white"></path><path d="M172.647 576.135C171.449 575.471 170.106 575.111 168.736 575.088C168.165 575.049 167.597 575.191 167.112 575.494C166.92 575.597 166.76 575.752 166.65 575.94C166.541 576.129 166.486 576.344 166.492 576.562C166.449 576.759 166.449 576.963 166.492 577.16C166.597 577.337 166.754 577.479 166.941 577.566C167.255 577.737 167.594 577.859 167.945 577.929L169.676 578.334C171.356 578.568 172.923 579.314 174.164 580.47C174.665 580.995 175.056 581.615 175.313 582.294C175.569 582.973 175.688 583.696 175.66 584.421C175.679 585.545 175.43 586.658 174.933 587.667C174.466 588.627 173.778 589.461 172.924 590.102C172.052 590.751 171.077 591.249 170.04 591.576C168.748 591.946 167.409 592.125 166.065 592.109C163.166 592.07 160.331 591.252 157.859 589.739L160.487 584.613C162.156 585.895 164.176 586.64 166.278 586.749C166.86 586.773 167.435 586.616 167.924 586.3C168.114 586.184 168.27 586.02 168.379 585.826C168.487 585.631 168.544 585.413 168.544 585.19C168.586 584.971 168.586 584.747 168.544 584.528C168.45 584.327 168.302 584.157 168.116 584.037C167.827 583.856 167.509 583.726 167.176 583.652C166.642 583.503 166.108 583.375 165.552 583.268C163.829 583.034 162.203 582.332 160.851 581.239C160.385 580.744 160.026 580.159 159.794 579.52C159.563 578.881 159.464 578.201 159.504 577.523C159.492 576.457 159.711 575.4 160.145 574.426C160.57 573.513 161.199 572.709 161.983 572.077C162.853 571.411 163.838 570.911 164.889 570.603C166.117 570.242 167.392 570.069 168.672 570.091C170.945 570.081 173.197 570.524 175.297 571.394L172.647 576.135Z" fill="white"></path><path d="M192.264 576.135C191.057 575.475 189.708 575.116 188.332 575.088C187.763 575.06 187.197 575.201 186.708 575.494C186.519 575.601 186.362 575.756 186.253 575.944C186.144 576.131 186.087 576.345 186.088 576.562C186.046 576.759 186.046 576.963 186.088 577.16C186.192 577.331 186.339 577.471 186.516 577.566C186.83 577.737 187.169 577.859 187.52 577.929L189.272 578.334C190.944 578.596 192.503 579.338 193.76 580.47C194.754 581.541 195.284 582.961 195.235 584.421C195.253 585.545 195.004 586.658 194.508 587.667C194.042 588.621 193.362 589.454 192.521 590.102C191.584 590.784 190.535 591.297 189.422 591.618C188.13 591.988 186.791 592.168 185.447 592.152C182.548 592.113 179.714 591.294 177.241 589.781L179.891 584.656C181.552 585.937 183.565 586.682 185.661 586.792C186.243 586.815 186.817 586.659 187.306 586.343C187.501 586.231 187.663 586.069 187.776 585.874C187.888 585.679 187.948 585.458 187.947 585.233C187.99 585.014 187.99 584.789 187.947 584.57C187.854 584.37 187.706 584.199 187.52 584.079C187.237 583.887 186.917 583.756 186.58 583.695C186.046 583.545 185.511 583.417 184.956 583.31C183.232 583.077 181.606 582.375 180.254 581.282C179.789 580.786 179.43 580.201 179.198 579.562C178.967 578.923 178.868 578.244 178.908 577.566C178.896 576.499 179.114 575.443 179.549 574.469C179.974 573.555 180.602 572.752 181.387 572.12C182.257 571.454 183.242 570.954 184.293 570.646C185.498 570.325 186.744 570.181 187.99 570.219C190.255 570.222 192.498 570.664 194.593 571.522L192.264 576.135Z" fill="white"></path><path d="M197.82 562.958C197.819 562.415 197.928 561.877 198.141 561.377C198.334 560.884 198.633 560.439 199.017 560.075C199.392 559.697 199.834 559.393 200.321 559.178C201.068 558.855 201.896 558.768 202.694 558.928C203.492 559.088 204.222 559.488 204.787 560.075C205.171 560.439 205.47 560.884 205.663 561.377C205.875 561.877 205.984 562.415 205.984 562.958C205.984 563.501 205.875 564.038 205.663 564.538C205.25 565.497 204.486 566.261 203.526 566.674C203.026 566.885 202.488 566.994 201.945 566.994C201.401 566.994 200.864 566.885 200.363 566.674C199.404 566.261 198.639 565.497 198.226 564.538C197.984 564.045 197.846 563.507 197.82 562.958V562.958ZM205.556 570.838V591.383H198.29V570.838H205.556Z" fill="white"></path><path d="M208.847 580.897C208.848 579.422 209.169 577.965 209.787 576.626C210.382 575.307 211.257 574.134 212.352 573.187C213.49 572.179 214.81 571.396 216.241 570.881C217.83 570.306 219.51 570.024 221.199 570.048C222.872 570.029 224.536 570.304 226.114 570.86C227.557 571.366 228.892 572.141 230.046 573.145C231.144 574.11 232.025 575.296 232.632 576.626C233.245 578.034 233.561 579.554 233.561 581.089C233.561 582.625 233.245 584.144 232.632 585.553C232.012 586.881 231.133 588.072 230.046 589.055C228.888 590.06 227.545 590.829 226.093 591.319C224.489 591.858 222.806 592.125 221.113 592.109C219.449 592.125 217.794 591.858 216.22 591.319C214.792 590.82 213.478 590.043 212.352 589.034C211.265 588.043 210.399 586.835 209.809 585.489C209.172 584.042 208.844 582.478 208.847 580.897ZM216.519 580.897C216.522 581.548 216.645 582.192 216.882 582.798C217.126 583.352 217.466 583.858 217.887 584.293C218.316 584.72 218.824 585.061 219.382 585.297C219.958 585.536 220.575 585.66 221.199 585.66C221.822 585.66 222.44 585.536 223.015 585.297C223.574 585.061 224.082 584.72 224.511 584.293C224.932 583.858 225.272 583.352 225.516 582.798C225.769 582.215 225.9 581.586 225.9 580.951C225.9 580.315 225.769 579.686 225.516 579.103C225.272 578.549 224.932 578.043 224.511 577.608C224.082 577.181 223.574 576.84 223.015 576.604C222.44 576.365 221.822 576.241 221.199 576.241C220.575 576.241 219.958 576.365 219.382 576.604C218.824 576.84 218.316 577.181 217.887 577.608C217.478 578.045 217.139 578.542 216.882 579.082C216.625 579.697 216.501 580.359 216.519 581.025V580.897Z" fill="white"></path><path d="M236.906 570.838H244.172V573.444C244.955 572.397 245.992 571.567 247.185 571.031C249.524 570.135 252.111 570.135 254.45 571.031C255.459 571.496 256.356 572.173 257.079 573.017C257.655 573.688 258.065 574.486 258.276 575.345C258.51 576.302 258.618 577.285 258.596 578.27V591.319H251.352V580.961C251.356 580.131 251.284 579.302 251.138 578.484C251.014 577.924 250.741 577.407 250.347 576.989C250.049 576.672 249.673 576.436 249.258 576.306C248.842 576.177 248.41 576.112 247.975 576.113C247.455 576.083 246.933 576.165 246.447 576.353C245.96 576.541 245.52 576.83 245.155 577.203C244.445 578.097 244.095 579.224 244.172 580.363V591.319H236.906V570.838Z" fill="white"></path><path d="M264.986 583.738H271.781L264.409 597H259.793L264.986 583.738Z" fill="white"></path><path d="M293.044 576.882V591.383H285.779V576.882H283.171V570.838H285.779V567.763C285.739 566.379 285.904 564.998 286.27 563.663C286.533 562.794 286.969 561.988 287.552 561.292C288.153 560.543 288.875 559.9 289.689 559.391C290.476 558.858 291.331 558.434 292.232 558.131C293.102 557.851 294.011 557.707 294.925 557.704C295.5 557.704 296.074 557.768 296.634 557.896C297.18 558.034 297.71 558.227 298.216 558.473V564.88C297.786 564.658 297.335 564.479 296.869 564.346C296.447 564.218 296.008 564.153 295.566 564.154C295.26 564.15 294.956 564.2 294.668 564.303C294.331 564.403 294.032 564.604 293.814 564.88C293.514 565.24 293.321 565.676 293.258 566.14C293.173 566.849 293.13 567.562 293.13 568.276V570.838H298.258V576.882H293.044Z" fill="white"></path><path d="M308.11 570.838V582.413C307.975 583.286 308.191 584.176 308.712 584.888C309.233 585.601 310.016 586.078 310.888 586.215C311.193 586.247 311.501 586.247 311.807 586.215C314.264 586.215 315.482 584.934 315.482 582.392V570.817H322.748V583.802C322.834 584.99 322.628 586.182 322.148 587.273C321.667 588.363 320.927 589.32 319.992 590.059C317.473 591.416 314.657 592.127 311.796 592.127C308.935 592.127 306.119 591.416 303.601 590.059C302.665 589.32 301.925 588.363 301.445 587.273C300.964 586.182 300.758 584.99 300.844 583.802V570.817L308.11 570.838Z" fill="white"></path><path d="M326.873 570.838H334.117V574.213C334.831 573.051 335.813 572.077 336.98 571.372C338.176 570.709 339.524 570.37 340.891 570.39H342.302V577.331C341.338 576.835 340.266 576.585 339.182 576.604C338.479 576.552 337.774 576.659 337.118 576.918C336.463 577.177 335.875 577.581 335.399 578.099C334.46 579.366 334.005 580.926 334.117 582.499V591.298H326.873V570.838Z" fill="white"></path><path d="M354.418 576.882V591.383H347.153V576.882H344.738V570.838H347.153V564.666H354.418V570.838H358.543V576.882H354.418Z" fill="white"></path><path d="M360.466 558.131H367.71V573.444C368.511 572.414 369.543 571.587 370.723 571.03C371.859 570.584 373.072 570.366 374.292 570.39C375.367 570.313 376.446 570.464 377.458 570.832C378.471 571.2 379.394 571.777 380.169 572.525C381.554 574.126 382.266 576.2 382.156 578.313V591.362H374.891V581.004C374.909 580.151 374.83 579.298 374.655 578.463C374.528 577.905 374.247 577.395 373.843 576.989C373.206 576.432 372.382 576.135 371.535 576.156C371.011 576.121 370.485 576.201 369.995 576.389C369.504 576.577 369.06 576.869 368.693 577.245C367.993 578.145 367.643 579.268 367.71 580.406V591.362H360.466V558.131Z" fill="white"></path><path d="M392.008 582.349C392.008 585.467 393.482 587.026 396.41 587.026C397.123 587.06 397.833 586.899 398.461 586.56C399.09 586.222 399.615 585.718 399.979 585.104H407.009C405.578 589.803 402.052 592.152 396.324 592.152C394.696 592.175 393.077 591.915 391.538 591.383C390.168 590.889 388.911 590.127 387.841 589.141C386.8 588.184 385.982 587.01 385.447 585.702C384.873 584.278 384.59 582.753 384.614 581.217C384.586 579.637 384.854 578.065 385.404 576.583C385.908 575.266 386.687 574.071 387.691 573.081C388.731 572.134 389.952 571.407 391.281 570.945C392.805 570.412 394.411 570.151 396.025 570.176C397.626 570.153 399.217 570.414 400.727 570.945C402.054 571.431 403.258 572.204 404.253 573.209C405.213 574.255 405.941 575.492 406.39 576.839C406.922 578.392 407.182 580.025 407.159 581.666V582.435L392.008 582.349ZM400.556 578.078C400.356 577.111 399.827 576.243 399.06 575.622C398.288 575.013 397.329 574.689 396.346 574.704C395.353 574.667 394.378 574.976 393.589 575.579C392.856 576.224 392.378 577.111 392.243 578.078H400.556Z" fill="white"></path><path d="M410.621 570.838H417.929V574.213C418.637 573.053 419.612 572.08 420.772 571.372C421.975 570.709 423.33 570.37 424.704 570.39H426.114V577.331C425.142 576.837 424.063 576.588 422.973 576.604C422.27 576.552 421.565 576.659 420.91 576.918C420.254 577.177 419.667 577.581 419.19 578.099C418.272 579.375 417.826 580.931 417.929 582.499V591.298H410.685L410.621 570.838Z" fill="white"></path><path d="M426.477 587.539C426.48 586.916 426.603 586.3 426.841 585.724C427.076 585.166 427.417 584.658 427.845 584.229C428.279 583.797 428.795 583.455 429.362 583.225C429.938 582.985 430.555 582.862 431.179 582.862C431.802 582.862 432.42 582.985 432.995 583.225C433.563 583.455 434.079 583.797 434.512 584.229C434.942 584.652 435.277 585.162 435.495 585.724C435.743 586.297 435.866 586.915 435.859 587.539C435.862 588.783 435.379 589.978 434.512 590.871C434.079 591.303 433.563 591.644 432.995 591.875C432.42 592.114 431.802 592.238 431.179 592.238C430.555 592.238 429.938 592.114 429.362 591.875C428.795 591.644 428.279 591.303 427.845 590.871C426.968 589.983 426.477 588.786 426.477 587.539V587.539Z" fill="#D35396"></path><path d="M334.38 65.8219V151.303L408.975 194.055V108.563L334.38 65.8219Z" fill="#6A50A1"></path><path d="M219.505 85.4812L179.215 108.562V147.892L219.505 170.973L259.775 147.892V108.562L219.505 85.4812Z" fill="#34403B"></path><path d="M30.0245 108.563V194.055L104.62 151.303V65.8219L30.0245 108.563Z" fill="#90C64D"></path><path d="M144.9 42.7406L219.505 85.4812L294.1 42.7406L219.505 0L144.9 42.7406Z" fill="#50A9DE"></path><path d="M294.1 391.509L219.505 348.769L144.9 391.509L219.495 434.261L294.1 391.509Z" fill="#E88F3F"></path><path d="M144.9 128.233L179.215 147.892V108.562L219.505 85.4812L144.9 42.7406L104.62 65.8218V151.303L144.9 128.233Z" fill="#007E4D"></path><path d="M30.0245 325.698L104.62 368.439V282.947L30.0245 240.206V325.698Z" fill="#ECCF37"></path><path d="M179.215 194.055V147.892L144.9 128.233L104.62 151.303V197.466L138.945 217.125L179.215 194.055Z" fill="#1C6043"></path><path d="M179.215 194.054L138.945 217.125L179.215 240.206V194.054Z" fill="#2C5241"></path><path d="M179.215 147.892V194.054L219.505 170.973L179.215 147.892Z" fill="#383A3A"></path><path d="M334.38 368.439L408.975 325.698V240.206L334.38 282.947V368.439Z" fill="#D65196"></path><path d="M334.38 151.303V197.466L300.055 217.125L334.38 236.795V282.947L408.975 240.206V194.054L334.38 151.303Z" fill="#7A2F88"></path><path d="M259.775 147.892V194.055L300.055 217.125L334.38 197.466V151.303L294.1 128.233L259.775 147.892Z" fill="#30368A"></path><path d="M259.775 240.206L300.055 217.125L259.775 194.054V240.206Z" fill="#3A383A"></path><path d="M259.775 194.054V147.892L219.505 170.973L259.775 194.054Z" fill="#383739"></path><path d="M179.215 240.206V286.358L219.505 263.287L179.215 240.206Z" fill="#42423D"></path><path d="M219.505 263.287L220.162 263.664L259.775 286.358V240.206L219.505 263.287Z" fill="#64363A"></path><path d="M179.215 194.054V240.206L219.505 263.287L259.775 240.206V194.054L219.505 170.973L179.215 194.054Z" fill="#383739"></path><path d="M179.215 325.698V286.358L144.9 306.028L104.62 282.947V368.439L144.9 391.52L219.505 348.769L179.215 325.698Z" fill="#D7812B"></path><path d="M219.505 263.287L179.215 286.358V325.698L219.505 348.769L259.775 325.698V286.358L219.505 263.287Z" fill="#BC3D2E"></path><path d="M259.775 108.562V147.892L294.1 128.233L334.38 151.303V65.8218L294.1 42.7406L219.505 85.4812L259.775 108.562Z" fill="#2C4797"></path><path d="M294.09 306.017L259.775 286.358V325.698L219.505 348.769L294.09 391.509H294.1L334.38 368.439V282.947L294.1 306.028L294.09 306.017Z" fill="#D03D2A"></path><path d="M300.055 217.125L259.775 240.206V286.358L294.09 306.017L294.1 306.028L334.38 282.947V236.795L300.055 217.125Z" fill="#763438"></path><path d="M30.0245 194.054V240.206L104.62 282.947V236.795L138.945 217.125L104.62 197.466V151.303L30.0245 194.054Z" fill="#4BA847"></path><path d="M179.215 240.206L138.945 217.125L104.62 236.795V282.947L144.9 306.028L179.215 286.358V240.206Z" fill="#5C7B42"></path></g><defs><linearGradient id="paint0_linear" x1="219.558" y1="434.565" x2="219.558" y2="216.456" gradientUnits="userSpaceOnUse"><stop offset="0.15" stop-color="#E88F3F"></stop><stop offset="0.4" stop-color="#BB3D2F"></stop><stop offset="0.75" stop-color="#383739"></stop></linearGradient><linearGradient id="paint1_linear" x1="405.746" y1="328.153" x2="225.149" y2="210.59" gradientUnits="userSpaceOnUse"><stop offset="0.15" stop-color="#D65196"></stop><stop offset="0.4" stop-color="#753438"></stop><stop offset="0.75" stop-color="#383739"></stop></linearGradient><linearGradient id="paint2_linear" x1="220.295" y1="-0.430506" x2="220.295" y2="216.455" gradientUnits="userSpaceOnUse"><stop offset="0.15" stop-color="#4FA9E0"></stop><stop offset="0.4" stop-color="#34403B"></stop><stop offset="0.75" stop-color="#383739"></stop></linearGradient><linearGradient id="paint3_linear" x1="404.776" y1="104.62" x2="229.288" y2="227.792" gradientUnits="userSpaceOnUse"><stop offset="0.15" stop-color="#6A4FA0"></stop><stop offset="0.5" stop-color="#30358A"></stop><stop offset="0.75" stop-color="#383739"></stop></linearGradient><linearGradient id="paint4_linear" x1="34.6904" y1="327.799" x2="216.689" y2="209.325" gradientUnits="userSpaceOnUse"><stop offset="0.15" stop-color="#EBCE36"></stop><stop offset="0.4" stop-color="#5B7B42"></stop><stop offset="0.75" stop-color="#383739"></stop></linearGradient><linearGradient id="paint5_linear" x1="34.7232" y1="106.13" x2="216.233" y2="224.287" gradientUnits="userSpaceOnUse"><stop offset="0.15" stop-color="#90C64D"></stop><stop offset="0.4" stop-color="#1C5F43"></stop><stop offset="0.75" stop-color="#383739"></stop></linearGradient><clipPath id="clip0"><rect width="439" height="597" fill="white"></rect></clipPath></defs></svg> 