<svg width="14" height="13" viewBox="0 0 14 13" fill="none" xmlns="http://www.w3.org/2000/svg">
<path d="M13.2857 10.0714C13.2857 10.2321 13.256 10.4419 13.1964 10.7009C13.1369 10.9598 13.0744 11.1637 13.0089 11.3125C12.8839 11.6101 12.5208 11.9256 11.9197 12.2589C11.3601 12.5625 10.8066 12.7143 10.2589 12.7143C10.0982 12.7143 9.94197 12.7038 9.79019 12.683C9.6384 12.6622 9.46727 12.625 9.27679 12.5714C9.08632 12.5178 8.94495 12.4747 8.85269 12.4419C8.76042 12.4092 8.59525 12.3482 8.35715 12.2589C8.11906 12.1696 7.97322 12.116 7.91965 12.0982C7.33632 11.8898 6.81548 11.6428 6.35715 11.3571C5.59525 10.8869 4.80804 10.2455 3.99554 9.433C3.18304 8.6205 2.54168 7.8333 2.07144 7.07139C1.78572 6.61306 1.5387 6.09223 1.33037 5.50889C1.31251 5.45532 1.25894 5.30949 1.16965 5.07139C1.08037 4.8333 1.01935 4.66812 0.986616 4.57586C0.953878 4.4836 0.910723 4.34223 0.857152 4.15175C0.80358 3.96127 0.766378 3.79014 0.745544 3.63836C0.724711 3.48657 0.714294 3.33032 0.714294 3.16961C0.714294 2.62199 0.86608 2.06842 1.16965 1.50889C1.50298 0.907703 1.81846 0.544608 2.11608 0.419608C2.26489 0.354132 2.46876 0.291632 2.72769 0.232108C2.98662 0.172584 3.19644 0.142822 3.35715 0.142822C3.44048 0.142822 3.50298 0.151751 3.54465 0.169608C3.65179 0.205322 3.80953 0.431513 4.01787 0.848179C4.08334 0.961275 4.17263 1.12199 4.28572 1.33032C4.39882 1.53866 4.50298 1.72764 4.59822 1.89729C4.69346 2.06693 4.78572 2.22616 4.87501 2.37496C4.89287 2.39877 4.94495 2.47318 5.03126 2.59818C5.11757 2.72318 5.18156 2.82883 5.22322 2.91514C5.26489 3.00145 5.28572 3.08627 5.28572 3.16961C5.28572 3.28866 5.2009 3.43746 5.03126 3.61604C4.86162 3.79461 4.67709 3.9583 4.47769 4.10711C4.27828 4.25592 4.09376 4.41366 3.92412 4.58032C3.75447 4.74699 3.66965 4.88389 3.66965 4.99104C3.66965 5.04461 3.68453 5.11157 3.71429 5.19193C3.74406 5.27229 3.76935 5.3333 3.79019 5.37496C3.81102 5.41663 3.85269 5.48806 3.91519 5.58925C3.97769 5.69044 4.01191 5.74699 4.01787 5.75889C4.47025 6.57437 4.9881 7.27377 5.57144 7.85711C6.15477 8.44044 6.85418 8.9583 7.66965 9.41068C7.68156 9.41663 7.7381 9.45086 7.83929 9.51336C7.94048 9.57586 8.01191 9.61752 8.05358 9.63836C8.09525 9.65919 8.15626 9.68449 8.23662 9.71425C8.31697 9.74401 8.38394 9.75889 8.43751 9.75889C8.54465 9.75889 8.68156 9.67407 8.84822 9.50443C9.01489 9.33479 9.17263 9.15026 9.32144 8.95086C9.47025 8.75145 9.63394 8.56693 9.81251 8.39729C9.99108 8.22764 10.1399 8.14282 10.2589 8.14282C10.3423 8.14282 10.4271 8.16366 10.5134 8.20532C10.5997 8.24699 10.7054 8.31098 10.8304 8.39729C10.9554 8.4836 11.0298 8.53568 11.0536 8.55354C11.2024 8.64282 11.3616 8.73508 11.5313 8.83032C11.7009 8.92556 11.8899 9.02973 12.0982 9.14282C12.3066 9.25592 12.4673 9.3452 12.5804 9.41068C12.997 9.61901 13.2232 9.77675 13.2589 9.88389C13.2768 9.92556 13.2857 9.98806 13.2857 10.0714Z" fill="#031C34"/>
</svg>
